<svg xmlns="http://www.w3.org/2000/svg" xmlns:xlink="http://www.w3.org/1999/xlink" width="77" height="16" viewBox="0 0 77 16">
    <defs>
        <path id="a" d="M0 .068v14.688h14.22V.068H0z"/>
        <path id="c" d="M15.561 0H.015v15.488H15.56V.001z"/>
        <path id="e" d="M13.512 0H.077v15.488h13.435V.001z"/>
    </defs>
    <g fill="none" fill-rule="evenodd">
        <g transform="translate(0 .214)">
            <mask id="b" fill="#fff">
                <use xlink:href="#a"/>
            </mask>
            <path fill="#748296" d="M7.62 10.404h-.205L3.922 1.34C3.64.617 2.943.068 2.166.068h-.28C.531.068-.38 1.57.155 2.813l4.686 10.852c.297.69.978 1.09 1.73 1.09h1.54c.782 0 1.481-.374 1.76-1.103l4.234-10.847c.471-1.232-.6-2.514-1.689-2.514-.544 0-1.611.488-1.862 1.266L7.62 10.404z" mask="url(#b)"/>
        </g>
        <g transform="translate(15.038 .107)">
            <mask id="d" fill="#fff">
                <use xlink:href="#c"/>
            </mask>
            <path fill="#748296" d="M10.56 11.176c-.714.724-1.638 1.086-2.772 1.086-.606 0-1.144-.113-1.613-.338a3.447 3.447 0 0 1-1.203-.953 4.392 4.392 0 0 1-.763-1.437 5.82 5.82 0 0 1-.263-1.79c0-.801.097-1.485.293-2.053.195-.567.464-1.036.806-1.408.342-.37.748-.64 1.218-.806.469-.167.977-.25 1.525-.25 1.232 0 2.18.416 2.845 1.247.665.831.998 1.921.998 3.27 0 1.565-.358 2.709-1.071 3.432m2.977-9.049c-.665-.674-1.481-1.197-2.45-1.57C10.12.188 9.02.002 7.789.002 6.615 0 5.554.172 4.605.514a6.757 6.757 0 0 0-2.449 1.51C1.471 2.69.943 3.502.572 4.46.201 5.418.015 6.512.015 7.744c0 1.154.17 2.21.513 3.168.342.959.846 1.775 1.51 2.45.665.674 1.482 1.198 2.45 1.569.968.371 2.068.557 3.3.557 1.173 0 2.234-.171 3.183-.513a6.749 6.749 0 0 0 2.449-1.51c.684-.665 1.212-1.477 1.584-2.435.371-.958.557-2.054.557-3.286 0-1.153-.171-2.21-.513-3.168-.343-.957-.846-1.774-1.51-2.449" mask="url(#d)"/>
        </g>
        <path fill="#748296" d="M44.129.282h-1.376c-.365 0-.707.295-.917.593l-2.19 3.157c-.452.64-1.406.66-1.846.01L35.73.88c-.21-.309-.558-.597-.93-.597h-1.761c-.915 0-1.446 1.153-.912 1.896l3.354 4.723c.282.392.281.95 0 1.342l-3.701 5.04c-.536.743-.005 1.687.91 1.687h1.388c.366 0 .71-.071.92-.371l2.521-3.544c.45-.64 1.4-.61 1.844.034l2.473 3.49c.21.303.555.39.924.39h1.69c.908 0 1.44-.912.922-1.656l-3.629-5.16a1.08 1.08 0 0 1 .007-1.266l3.293-4.726c.53-.743-.002-1.88-.914-1.88M60.833 10.726V1.264c0-.412-.637-.982-1.049-.982h-3.977c-.412 0-.414.57-.414.982v1.74c0 .412.002.542.414.542h.249c.411 0 .97.537.97.95v5.341c0 .103-.131.205-.173.299-.251.564-.688 1.044-1.22 1.44a3.273 3.273 0 0 1-1.982.646c-.821 0-1.267-.264-1.649-.792-.381-.528-.417-1.388-.417-2.582V1.264c0-.412-.586-.982-.998-.982H46.61c-.412 0-.465.57-.465.982v1.74c0 .412.122.542.534.542h-.168c.412 0 .722.537.722.95V9.64c0 1.154.216 2.111.45 2.874.235.763.617 1.37 1.047 1.819.43.45.978.772 1.595.968a6.795 6.795 0 0 0 2.05.293c1.095 0 2.099-.355 2.998-.843.9-.489 1.58-.87 2.03-1.958h.118l.514 1.676c.095.315.386.5.714.5h3.272c.412 0 .988-.12.988-.532v-1.74c0-.411-.576-.992-.988-.992h-.745c-.412 0-.443-.087-.443-.5v-.48z"/>
        <g transform="translate(63.266 .107)">
            <mask id="f" fill="#fff">
                <use xlink:href="#e"/>
            </mask>
            <path fill="#748296" d="M12.793 8.595a5.559 5.559 0 0 0-1.775-1.335 12.251 12.251 0 0 0-2.317-.835 307.85 307.85 0 0 1-2.317-.602 11.583 11.583 0 0 1-1.775-.601c-.48-.215-.719-.499-.719-.85 0-.45.254-.783.763-.998.508-.215 1.173-.323 1.995-.323.45 0 .904.05 1.364.147.459.098.899.225 1.32.381a13.705 13.705 0 0 1 1.257.54 1.195 1.195 0 0 0 1.548-.44l.418-.676c.342-.553.18-1.28-.367-1.631l-.011-.007a7 7 0 0 0-1.379-.66A12.334 12.334 0 0 0 8.906.206C8.183.07 7.341.001 6.384.001c-.9 0-1.736.098-2.508.293-.773.196-1.437.484-1.995.865a4.367 4.367 0 0 0-1.32 1.394C.24 3.1.077 3.736.077 4.459c0 .88.24 1.599.719 2.156A5.805 5.805 0 0 0 2.57 7.994c.704.362 1.477.645 2.318.85.84.206 1.613.406 2.317.602.704.195 1.295.41 1.775.645.479.235.718.548.718.939 0 .508-.225.87-.675 1.085-.45.215-.987.323-1.613.323a7.414 7.414 0 0 1-1.774-.22 12.095 12.095 0 0 1-1.687-.543 9.147 9.147 0 0 1-1.423-.719l-.041-.026a1.192 1.192 0 0 0-1.644.363l-.495.775a1.196 1.196 0 0 0 .357 1.647c.574.374 1.24.715 2 1.025 1.221.499 2.673.748 4.355.748 2.132 0 3.74-.425 4.825-1.276 1.086-.85 1.629-2.019 1.629-3.505 0-.86-.24-1.564-.72-2.112" mask="url(#f)"/>
        </g>
    </g>
</svg>
